<svg width="42" height="42" viewBox="0 0 42 42" fill="none" xmlns="http://www.w3.org/2000/svg">
<path d="M21 0C15.0082 0 9.59409 2.52157 5.76359 6.5625C4.96824 7.40065 4.24423 8.31369 3.59511 9.2731C3.54518 9.348 3.50238 9.42646 3.45245 9.50136C3.42748 9.54059 3.39181 9.57626 3.36685 9.61549C3.25628 9.78312 3.15642 9.95788 3.05299 10.1291C2.92103 10.3466 2.77836 10.5606 2.65353 10.7853C2.60003 10.8816 2.53584 10.9708 2.48234 11.0707C2.4431 11.1456 2.40744 11.224 2.36821 11.2989C2.26478 11.4951 2.17918 11.6984 2.08288 11.8981C2.03652 11.9944 1.98658 12.0871 1.94022 12.1834C1.84035 12.3974 1.74762 12.6221 1.65489 12.8397C1.61923 12.9253 1.57643 13.0109 1.54076 13.0965C1.44803 13.3247 1.36957 13.5494 1.28397 13.7812C1.23404 13.9132 1.18767 14.0487 1.1413 14.1807C1.07711 14.3697 1.00221 14.5588 0.941576 14.7514C0.920177 14.8227 0.905911 14.9047 0.884511 14.9796C0.809613 15.2364 0.724015 15.4896 0.65625 15.75C0.641984 15.8071 0.641984 15.8641 0.627717 15.9212C0.549253 16.2386 0.463655 16.5667 0.399457 16.8913C0.39589 16.9091 0.403023 16.9305 0.399457 16.9484C0.335259 17.2694 0.278193 17.5904 0.228261 17.9185C0.181896 18.2288 0.146229 18.5462 0.11413 18.8601C0.110564 18.8779 0.117697 18.8993 0.11413 18.9171C0.0820315 19.2524 0.0463653 19.5769 0.0285326 19.9158C0.0285326 19.9265 0.0285326 19.9336 0.0285326 19.9443C0.0107 20.2938 0 20.6469 0 21C0 32.5807 9.41933 42 21 42C32.5807 42 42 32.5807 42 21C42 9.41933 32.5807 0 21 0ZM21 1.82609V17.6332L7.27582 7.64674C10.7604 4.0659 15.618 1.82609 21 1.82609ZM10.1291 11.9552L20.2582 19.3451C20.4828 19.2452 20.7361 19.1739 21 19.1739C21.4637 19.1739 21.8774 19.3451 22.1984 19.6304L30.8438 16.7486L31.4144 18.4891L22.7976 21.3709C22.6264 22.2019 21.8845 22.8261 21 22.8261C19.9907 22.8261 19.1739 22.0093 19.1739 21C19.1739 20.9358 19.1953 20.8609 19.2024 20.8003L9.04484 13.4389L10.1291 11.9552Z" fill="white"/>
</svg>
