<svg width="33" height="34" viewBox="0 0 33 34" fill="none" xmlns="http://www.w3.org/2000/svg">
    <path d="M29.4358 22.8229L24.9208 22.3034C23.8279 22.1779 22.7529 22.5542 21.9825 23.3246L18.6679 26.6392C16.1256 25.3492 13.8197 23.6668 11.8273 21.6727C9.83322 19.6804 8.15084 17.3745 6.86084 14.8321L10.1754 11.5175C10.9458 10.7471 11.3221 9.67211 11.1967 8.57919L10.6771 4.06419C10.4621 2.25461 8.93918 0.892944 7.11168 0.892944H4.0121C1.98751 0.892944 0.303345 2.57711 0.428762 4.60169C0.903553 12.2503 4.19843 19.1285 9.28497 24.2151C14.3715 29.3016 21.2497 32.5965 28.8983 33.0713C30.9229 33.1967 32.6071 31.5125 32.6071 29.4879V26.3884C32.6071 24.5609 31.2454 23.0379 29.4358 22.8229Z"
          fill="#000"/>
</svg>
