<svg width="38" height="45" viewBox="0 0 38 45" fill="none" xmlns="http://www.w3.org/2000/svg">
<path d="M36.8532 0.0128841C36.6335 0.0360579 36.4254 0.136475 36.2674 0.290964L34.2322 2.33021L33.708 1.80495C32.9603 1.05568 31.6768 1.05568 30.9329 1.80495L17.4887 15.2455L22.7616 20.529L36.1749 7.05757C36.9457 6.28513 36.9419 5.04535 36.1749 4.27677L35.6507 3.75151L37.6858 1.71226C38.0057 1.41487 38.0905 0.943678 37.8978 0.553595C37.7089 0.159649 37.2811 -0.0566353 36.8532 0.0128841ZM12.7401 13.268L9.22491 16.8213L9.90328 17.501C10.2849 17.8795 10.4891 18.3855 10.4891 18.9223C10.4891 19.4592 10.2849 19.9612 9.90328 20.3436L2.5645 27.6973C0.429167 29.8369 0.429167 33.3438 2.5645 35.4835C3.60134 36.5224 4.98507 37.0902 6.44974 37.0902C7.91441 37.0902 9.29814 36.5224 10.335 35.4835L17.6737 28.1298C18.4331 27.369 19.7513 27.369 20.5106 28.1298L21.2198 28.8096L24.735 25.2872L12.7401 13.268ZM36.1132 32.7336L29.8228 39.0367C28.7937 40.0641 27.4524 40.6125 25.9992 40.6125C24.5461 40.6125 23.174 40.0641 22.1448 39.0367C19.2541 36.1401 14.5517 36.1401 11.6609 39.0367L8.85488 41.8484C8.09171 42.6131 7.06644 43.0225 5.98721 43.0225C4.90798 43.0225 3.88271 42.6131 3.11954 41.8484C2.00176 40.7284 1.70112 39.1178 2.16365 37.7081C1.8129 37.4609 1.48527 37.1829 1.17692 36.8739C0.984201 36.6808 0.818461 36.4645 0.652722 36.2559C-0.480471 38.5153 -0.148993 41.3541 1.73195 43.2388C2.869 44.3782 4.37993 45 5.98721 45C7.59449 45 9.10542 44.3782 10.2425 43.2388L13.0485 40.4271C15.1684 38.3029 18.6373 38.3029 20.7573 40.4271C23.6481 43.3238 28.3504 43.3238 31.2412 40.4271L37.5008 34.124L36.1132 32.7336Z" fill="white"/>
</svg>
