<svg width="40" height="39" viewBox="0 0 40 39" fill="none" xmlns="http://www.w3.org/2000/svg">
<path d="M20 0C19.3428 0 18.7832 0.387483 18.51 0.947181C17.4559 1.24856 16.6686 2.22886 16.6686 3.3913V5.45788C15.2046 6.53753 14.17 8.20007 14.17 10.1739C14.17 13.4427 16.7889 16.1087 20 16.1087C23.2111 16.1087 25.83 13.4427 25.83 10.1739C25.83 8.20007 24.7954 6.53753 23.3314 5.45788V3.3913C23.3314 2.22886 22.5441 1.24856 21.49 0.947181C21.2168 0.387483 20.6572 0 20 0ZM19.1671 2.54348H20.8329C21.3046 2.54348 21.6657 2.91109 21.6657 3.3913V6.25934L22.0821 6.50442C23.3249 7.23964 24.1643 8.6008 24.1643 10.1739C24.1643 12.5253 22.3099 14.413 20 14.413C17.6901 14.413 15.8357 12.5253 15.8357 10.1739C15.8357 8.77964 16.4961 7.55426 17.5112 6.78261H20V5.08696H18.3343V3.3913C18.3343 2.91109 18.6954 2.54348 19.1671 2.54348ZM10.0057 3.3913C9.54697 3.3913 9.17283 3.77216 9.17283 4.23913C9.17283 4.7061 9.54697 5.08696 10.0057 5.08696C10.4644 5.08696 10.8386 4.7061 10.8386 4.23913C10.8386 3.77216 10.4644 3.3913 10.0057 3.3913ZM29.9943 3.3913C29.5356 3.3913 29.1614 3.77216 29.1614 4.23913C29.1614 4.7061 29.5356 5.08696 29.9943 5.08696C30.453 5.08696 30.8272 4.7061 30.8272 4.23913C30.8272 3.77216 30.453 3.3913 29.9943 3.3913ZM12.5043 5.08696C12.0455 5.08696 11.6714 5.46782 11.6714 5.93478C11.6714 6.40175 12.0455 6.78261 12.5043 6.78261C12.963 6.78261 13.3371 6.40175 13.3371 5.93478C13.3371 5.46782 12.963 5.08696 12.5043 5.08696ZM27.4957 5.08696C27.037 5.08696 26.6629 5.46782 26.6629 5.93478C26.6629 6.40175 27.037 6.78261 27.4957 6.78261C27.9545 6.78261 28.3286 6.40175 28.3286 5.93478C28.3286 5.46782 27.9545 5.08696 27.4957 5.08696ZM8.33998 9.32609C7.88125 9.32609 7.50712 9.70695 7.50712 10.1739C7.50712 10.6409 7.88125 11.0217 8.33998 11.0217C8.7987 11.0217 9.17283 10.6409 9.17283 10.1739C9.17283 9.70695 8.7987 9.32609 8.33998 9.32609ZM11.6714 9.32609C11.2127 9.32609 10.8386 9.70695 10.8386 10.1739C10.8386 10.6409 11.2127 11.0217 11.6714 11.0217C12.1301 11.0217 12.5043 10.6409 12.5043 10.1739C12.5043 9.70695 12.1301 9.32609 11.6714 9.32609ZM28.3286 9.32609C27.8699 9.32609 27.4957 9.70695 27.4957 10.1739C27.4957 10.6409 27.8699 11.0217 28.3286 11.0217C28.7873 11.0217 29.1614 10.6409 29.1614 10.1739C29.1614 9.70695 28.7873 9.32609 28.3286 9.32609ZM31.66 9.32609C31.2013 9.32609 30.8272 9.70695 30.8272 10.1739C30.8272 10.6409 31.2013 11.0217 31.66 11.0217C32.1187 11.0217 32.4929 10.6409 32.4929 10.1739C32.4929 9.70695 32.1187 9.32609 31.66 9.32609ZM12.5043 13.5652C12.0455 13.5652 11.6714 13.9461 11.6714 14.413C11.6714 14.88 12.0455 15.2609 12.5043 15.2609C12.963 15.2609 13.3371 14.88 13.3371 14.413C13.3371 13.9461 12.963 13.5652 12.5043 13.5652ZM27.4957 13.5652C27.037 13.5652 26.6629 13.9461 26.6629 14.413C26.6629 14.88 27.037 15.2609 27.4957 15.2609C27.9545 15.2609 28.3286 14.88 28.3286 14.413C28.3286 13.9461 27.9545 13.5652 27.4957 13.5652ZM10.0057 15.2609C9.54697 15.2609 9.17283 15.6417 9.17283 16.1087C9.17283 16.5757 9.54697 16.9565 10.0057 16.9565C10.4644 16.9565 10.8386 16.5757 10.8386 16.1087C10.8386 15.6417 10.4644 15.2609 10.0057 15.2609ZM29.9943 15.2609C29.5356 15.2609 29.1614 15.6417 29.1614 16.1087C29.1614 16.5757 29.5356 16.9565 29.9943 16.9565C30.453 16.9565 30.8272 16.5757 30.8272 16.1087C30.8272 15.6417 30.453 15.2609 29.9943 15.2609ZM0.844246 19.5C0.544937 19.4967 0.265149 19.6557 0.112241 19.9206C-0.0374137 20.1855 -0.0374137 20.5101 0.112241 20.7751C0.265149 21.04 0.544937 21.199 0.844246 21.1957H1.6771V25.4348H38.3229V21.1957H39.1558C39.4551 21.199 39.7349 21.04 39.8878 20.7751C40.0374 20.5101 40.0374 20.1855 39.8878 19.9206C39.7349 19.6557 39.4551 19.4967 39.1558 19.5H0.844246ZM1.6771 27.1304V39H5.00854V27.1304H1.6771ZM34.9915 27.1304V39H38.3229V27.1304H34.9915Z" fill="white"/>
</svg>
